<svg width="24" height="24" viewBox="0 0 24 24" fill="none" xmlns="http://www.w3.org/2000/svg">
<g id="icon_basic/outline/arrow_left">
<path id="Shape" fill-rule="evenodd" clip-rule="evenodd" d="M12.5655 4.54733C12.878 4.23491 12.878 3.72837 12.5655 3.41596C12.2531 3.10354 11.7466 3.10354 11.4342 3.41596L3.41596 11.4342C3.30169 11.5484 3.22922 11.6887 3.19854 11.8359C3.18746 11.8889 3.18164 11.9439 3.18164 12.0002C3.18164 12.2282 3.27704 12.434 3.43009 12.5797L11.4342 20.5837C11.7466 20.8962 12.2531 20.8962 12.5655 20.5837C12.878 20.2713 12.878 19.7648 12.5655 19.4524L5.91335 12.8002H20.0181C20.4599 12.8002 20.8181 12.442 20.8181 12.0002C20.8181 11.5584 20.4599 11.2002 20.0181 11.2002H5.91267L12.5655 4.54733Z" fill="#141618"/>
</g>
</svg>
