<svg width="24" height="24" viewBox="0 0 24 24" fill="none" xmlns="http://www.w3.org/2000/svg">
<path fill-rule="evenodd" clip-rule="evenodd" d="M4.5 2C3.83696 2 3.20107 2.26339 2.73223 2.73223C2.26339 3.20107 2 3.83696 2 4.5V19.5C2 20.163 2.26339 20.7989 2.73223 21.2678C3.20107 21.7366 3.83696 22 4.5 22H19.5C20.163 22 20.7989 21.7366 21.2678 21.2678C21.7366 20.7989 22 20.163 22 19.5V4.5C22 3.83696 21.7366 3.20107 21.2678 2.73223C20.7989 2.26339 20.163 2 19.5 2H4.5Z" fill="#E1E3E6"/>
<path fill-rule="evenodd" clip-rule="evenodd" d="M6.75 12C6.75 11.3096 7.30964 10.75 8 10.75H16C16.6904 10.75 17.25 11.3096 17.25 12C17.25 12.6904 16.6904 13.25 16 13.25H8C7.30964 13.25 6.75 12.6904 6.75 12Z" fill="#949DA8"/>
</svg>
