<svg width="24" height="25" viewBox="0 0 24 25" fill="none" xmlns="http://www.w3.org/2000/svg">
<g id="icon-park-solid:trend">
<g id="Group">
<path id="Union" fill-rule="evenodd" clip-rule="evenodd" d="M4.5 22.5C3.83696 22.5 3.20107 22.2366 2.73223 21.7678C2.26339 21.2989 2 20.663 2 20L2 5C2 4.33696 2.26339 3.70107 2.73223 3.23223C3.20107 2.76339 3.83696 2.5 4.5 2.5L19.5 2.5C20.163 2.5 20.7989 2.76339 21.2678 3.23223C21.7366 3.70107 22 4.33695 22 5L22 20C22 20.663 21.7366 21.2989 21.2678 21.7678C20.7989 22.2366 20.163 22.5 19.5 22.5L4.5 22.5Z" fill="#E1E3E6"/>
<path id="Union_2" fill-rule="evenodd" clip-rule="evenodd" d="M16.9988 16.5L17 16.5C17.5523 16.5 18 16.0523 18 15.5L18 11.5C18 10.9477 17.5523 10.5 17 10.5C16.4477 10.5 16 10.9477 16 11.5L16 13.0805L12.4497 9.51674C12.2624 9.32877 12.0082 9.22292 11.7428 9.2225C11.4775 9.22208 11.2229 9.32713 11.035 9.51451L9.54814 10.9977L7.42586 8.87539C7.03533 8.48487 6.40217 8.48487 6.01164 8.87539C5.62112 9.26592 5.62112 9.89908 6.01164 10.2896L8.84014 13.1181C9.23032 13.5083 9.8628 13.5087 10.2535 13.119L11.739 11.6372L14.591 14.5L13 14.5C12.4477 14.5 12 14.9477 12 15.5C12 16.0523 12.4477 16.5 13 16.5L16.9987 16.5C16.9987 16.5 16.9988 16.5 16.9988 16.5Z" fill="#237AF2"/>
</g>
</g>
</svg>
