<svg width="24" height="25" viewBox="0 0 24 25" fill="none" xmlns="http://www.w3.org/2000/svg">
<g id="icon-park-solid:trend">
<g id="Group">
<path id="Union" fill-rule="evenodd" clip-rule="evenodd" d="M4.5 2.5C3.83696 2.5 3.20107 2.76339 2.73223 3.23223C2.26339 3.70107 2 4.33696 2 5V20C2 20.663 2.26339 21.2989 2.73223 21.7678C3.20107 22.2366 3.83696 22.5 4.5 22.5H19.5C20.163 22.5 20.7989 22.2366 21.2678 21.7678C21.7366 21.2989 22 20.663 22 20V5C22 4.33696 21.7366 3.70107 21.2678 3.23223C20.7989 2.76339 20.163 2.5 19.5 2.5H4.5Z" fill="#E1E3E6"/>
<path id="Union_2" fill-rule="evenodd" clip-rule="evenodd" d="M16.9988 8.5H17C17.5523 8.5 18 8.94772 18 9.5V13.5C18 14.0523 17.5523 14.5 17 14.5C16.4477 14.5 16 14.0523 16 13.5V11.9195L12.4497 15.4833C12.2624 15.6712 12.0082 15.7771 11.7428 15.7775C11.4775 15.7779 11.2229 15.6729 11.035 15.4855L9.54814 14.0023L7.42586 16.1246C7.03533 16.5151 6.40217 16.5151 6.01164 16.1246C5.62112 15.7341 5.62112 15.1009 6.01164 14.7104L8.84014 11.8819C9.23032 11.4917 9.8628 11.4913 10.2535 11.881L11.739 13.3628L14.591 10.5H13C12.4477 10.5 12 10.0523 12 9.5C12 8.94772 12.4477 8.5 13 8.5H16.9987C16.9987 8.5 16.9988 8.5 16.9988 8.5Z" fill="#E4604F"/>
</g>
</g>
</svg>
