<svg width="24" height="24" viewBox="0 0 24 24" fill="none" xmlns="http://www.w3.org/2000/svg">
<path d="M6.96411 3.75054C6.44257 2.79112 7.13711 1.62305 8.22912 1.62305H15.7705C16.8625 1.62305 17.557 2.79112 17.0355 3.75053L15.0923 7.32521H8.90728L6.96411 3.75054Z" fill="#279D47"/>
<path d="M22.2694 15.295C22.2694 20.3018 17.6721 22.379 12.0002 22.379C6.32822 22.379 1.72949 20.3018 1.72949 15.295C1.72949 10.2883 6.46899 5.271 12.1409 5.271C17.8129 5.271 22.2694 10.9593 22.2694 15.295Z" fill="#4ABB69"/>
<path d="M7.91406 11.5225L9.90022 17.2469L12.0032 11.5225L14.1061 17.2469L16.0919 11.5225" stroke="white" stroke-width="1.64552" stroke-linecap="round" stroke-linejoin="round"/>
<path d="M7.09375 14.3809H8.49555" stroke="white" stroke-width="1.64552" stroke-linecap="round" stroke-linejoin="round"/>
<path d="M15.5029 14.3809H16.9047" stroke="white" stroke-width="1.64552" stroke-linecap="round" stroke-linejoin="round"/>
</svg>
