<svg width="95" height="69" viewBox="0 0 95 69" fill="none" xmlns="http://www.w3.org/2000/svg">
<g id="Group 20045">
<path id="Rectangle 3239" d="M16.1226 54.1213C16.1226 50.2234 18.9124 46.8842 22.7482 46.1909L49.5666 41.3442V68.9457H16.1226V54.1213Z" fill="#2178BA"/>
<path id="Rectangle 3237" d="M31.5489 12.2313C32.0213 5.57185 37.8028 0.556317 44.4622 1.02874L82.2142 3.70692C88.8736 4.17934 93.8891 9.96084 93.4167 16.6202L89.9523 65.4548C89.5744 70.7823 84.9492 74.7947 79.6217 74.4168L37.0465 71.3964C31.719 71.0185 27.7066 66.3933 28.0845 61.0658L31.5489 12.2313Z" fill="#2178BA"/>
<ellipse id="Ellipse 979" cx="56.2739" cy="36.5558" rx="30.1478" ry="30.1478" transform="rotate(12.6187 56.2739 36.5558)" fill="#FFC226"/>
<ellipse id="Ellipse 980" cx="56.2745" cy="36.5558" rx="26.0367" ry="26.0367" transform="rotate(12.6187 56.2745 36.5558)" fill="#FFD467"/>
<path id="Vector" d="M23.4218 42.8748C26.376 43.5361 29.307 41.6774 29.9683 38.7232C30.6297 35.769 28.7709 32.8381 25.8168 32.1767C22.8626 31.5154 19.9316 33.3741 19.2703 36.3283C18.6089 39.2824 20.4676 42.2134 23.4218 42.8748Z" fill="#FFC226"/>
<path id="Rectangle 3235" d="M46.7308 24.6198C46.8646 24.0798 47.4118 23.7471 47.9528 23.8766L52.7527 25.0256C53.3123 25.1595 53.5507 25.8188 53.2073 26.2825L51.0405 29.2077C50.7958 29.538 50.3756 29.6891 49.9779 29.5898L46.7277 28.7777C46.1917 28.6438 45.8671 28.104 46 27.5678L46.7308 24.6198Z" fill="#5FD8FF" fill-opacity="0.95"/>
<path id="Rectangle 3236" d="M62.8035 28.4675C62.9374 27.9275 62.6073 27.3848 62.0662 27.2552L56.379 25.8938C55.8021 25.7557 55.2739 26.266 55.3945 26.8449L56.1319 30.3853C56.2101 30.7606 56.4961 31.0573 56.8693 31.15L60.8468 32.1385C61.3899 32.2735 61.9426 31.9407 62.0773 31.3974L62.8035 28.4675Z" fill="#FB5945" fill-opacity="0.95"/>
<g id="Group 19123">
<g id="Group 19107">
<path id="Vector_2" d="M49.9285 29.3663C50.7939 29.56 51.6904 28.8462 51.9309 27.772C52.1714 26.6979 51.6648 25.67 50.7994 25.4763C49.934 25.2825 49.0375 25.9963 48.797 27.0705C48.5565 28.1446 49.0631 29.1725 49.9285 29.3663Z" fill="#4F422C"/>
</g>
<g id="Group 19108">
<path id="Vector_3" d="M57.1585 30.9849C58.0239 31.1786 58.9204 30.4649 59.1609 29.3907C59.4014 28.3165 58.8948 27.2887 58.0293 27.0949C57.1639 26.9012 56.2675 27.6149 56.027 28.6891C55.7865 29.7633 56.2931 30.7912 57.1585 30.9849Z" fill="#4F422C"/>
</g>
<path id="Vector 2192" d="M52.6349 35.0149C50.1733 34.4638 49.405 32.6469 49.3299 31.455C49.3061 31.0774 49.6709 30.8407 50.0402 30.9234L56.7265 32.4202C57.0957 32.5029 57.3284 32.873 57.1527 33.2081C56.5823 34.2964 55.1244 35.5722 52.6349 35.0149Z" fill="#4F422C"/>
</g>
<path id="Subtract" fill-rule="evenodd" clip-rule="evenodd" d="M64.0382 27.7707C64.1721 27.2307 63.842 26.688 63.3009 26.5585L47.2021 22.7048C46.661 22.5753 46.1139 22.908 45.9801 23.448L44.7797 28.2905C44.6458 28.8305 44.9759 29.3733 45.517 29.5028L50.5179 30.6999C50.8658 30.7831 51.2332 30.676 51.4832 30.4185L52.9028 28.9561C53.4411 28.4016 54.3753 28.6252 54.5937 29.3609L55.1699 31.301C55.2714 31.6427 55.5475 31.9039 55.8954 31.9871L61.6158 33.3565C62.1568 33.486 62.704 33.1532 62.8378 32.6132L64.0382 27.7707ZM46.7291 24.6039C46.8629 24.0639 47.4101 23.7311 47.9511 23.8607L52.751 25.0097C53.3106 25.1436 53.549 25.8028 53.2056 26.2665L51.0388 29.1918C50.7941 29.5221 50.3739 29.6732 49.9762 29.5738L46.726 28.7618C46.19 28.6279 45.8654 28.0881 45.9983 27.5519L46.7291 24.6039ZM62.066 27.2393C62.607 27.3688 62.9371 27.9116 62.8033 28.4516L62.077 31.3814C61.9424 31.9247 61.3897 32.2576 60.8465 32.1226L56.869 31.1341C56.4959 31.0413 56.2098 30.7446 56.1316 30.3694L55.3943 26.8289C55.2737 26.25 55.8019 25.7398 56.3787 25.8779L62.066 27.2393Z" fill="white"/>
<g id="Group 20037">
<rect id="Rectangle 3232" x="5.22217" y="26.8203" width="13.6766" height="6.65348" transform="rotate(-10.1566 5.22217 26.8203)" fill="#FDE29E"/>
<path id="Union" fill-rule="evenodd" clip-rule="evenodd" d="M9.93889 22.2205C10.6784 22.088 11.3897 22.4964 11.6665 23.1629C12.2639 23.2979 12.7522 23.7779 12.867 24.4187C12.8885 24.5388 12.8958 24.6582 12.8899 24.775C13.1058 24.5679 13.3831 24.4201 13.6996 24.3634C13.7529 24.3538 13.8061 24.3471 13.8589 24.3431C13.9367 23.6727 14.4441 23.1036 15.1427 22.9785C15.8819 22.8461 16.5929 23.254 16.8699 23.9199C17.468 24.0546 17.9569 24.5347 18.0718 25.176C18.1965 25.8721 17.842 26.5432 17.2442 26.8504C17.383 27.696 16.8172 28.499 15.9709 28.6507C15.1466 28.7983 14.3573 28.274 14.1659 27.4693C13.3444 27.5697 12.578 27.0115 12.4303 26.1868C12.4088 26.0666 12.4015 25.9473 12.4073 25.8304C12.2996 25.9338 12.1766 26.0224 12.041 26.0922C12.1801 26.938 11.6143 27.7414 10.7678 27.893C9.94335 28.0407 9.15398 27.5162 8.9627 26.7113C8.14113 26.8118 7.37469 26.2535 7.22694 25.4288C7.07394 24.5748 7.64224 23.7584 8.49626 23.6054C8.5494 23.5959 8.60239 23.5892 8.65508 23.5851C8.73289 22.9147 9.24029 22.3457 9.93889 22.2205Z" fill="#FFEAB5"/>
<path id="Union_2" fill-rule="evenodd" clip-rule="evenodd" d="M6.30075 30.0071C6.40675 29.743 6.44233 29.447 6.38845 29.1462C6.23545 28.2922 5.4191 27.7239 4.56508 27.8769C3.86651 28.002 3.35911 28.571 3.28128 29.2414C3.22835 29.2455 3.17511 29.2522 3.12173 29.2618C2.2677 29.4148 1.69941 30.2311 1.8524 31.0851C2.0054 31.9392 2.82175 32.5075 3.67577 32.3545C3.81914 32.3288 3.95447 32.2844 4.07968 32.2243C4.42804 32.5396 4.91353 32.6959 5.41185 32.6067C6.26587 32.4537 6.83417 31.6373 6.68117 30.7833C6.62736 30.4829 6.49147 30.2179 6.30075 30.0071Z" fill="#FFD25F"/>
<path id="Union_3" fill-rule="evenodd" clip-rule="evenodd" d="M19.0229 28.1015C18.8323 27.8908 18.6964 27.6258 18.6426 27.3255C18.4896 26.4715 19.0579 25.6552 19.912 25.5022C20.6107 25.377 21.2842 25.7347 21.5899 26.3367C21.6407 26.3221 21.6928 26.31 21.7459 26.3005C22.6 26.1475 23.4163 26.7158 23.5693 27.5698C23.7223 28.4239 23.154 29.2402 22.3 29.3932C22.1562 29.4189 22.0136 29.4243 21.8749 29.4112C21.6578 29.828 21.2567 30.1433 20.7582 30.2326C19.9042 30.3855 19.0879 29.8173 18.9349 28.9632C18.8809 28.6622 18.9166 28.3658 19.0229 28.1015Z" fill="#FDDE90"/>
<path id="Union_4" fill-rule="evenodd" clip-rule="evenodd" d="M12.8012 28.2786C13.0865 27.9347 13.2239 27.4721 13.139 26.9979C12.986 26.1438 12.1696 25.5755 11.3156 25.7285C10.8175 25.8178 10.4167 26.1326 10.1994 26.549C10.0609 26.536 9.9184 26.5413 9.77483 26.567C8.92081 26.72 8.35252 27.5364 8.50551 28.3904C8.65322 29.2149 9.41927 29.7731 10.2406 29.673C10.2443 29.7043 10.2489 29.7356 10.2545 29.767C10.4075 30.621 11.2239 31.1893 12.0779 31.0363C12.9319 30.8833 13.5002 30.067 13.3472 29.2129C13.2789 28.8316 13.0783 28.5072 12.8012 28.2786Z" fill="#FFF5DC"/>
<path id="Union_5" fill-rule="evenodd" clip-rule="evenodd" d="M8.10242 25.3024C7.82571 24.6359 7.11437 24.2274 6.37478 24.3599C5.67607 24.4851 5.16861 25.0543 5.09094 25.7248C5.03914 25.7289 4.98706 25.7356 4.93484 25.7449C4.08082 25.8979 3.51253 26.7143 3.66552 27.5683C3.81312 28.3922 4.57813 28.9502 5.39873 28.8511C5.59024 29.6557 6.37944 30.18 7.20373 30.0323C8.05015 29.8807 8.61591 29.0774 8.47696 28.2317C9.07376 27.9241 9.42747 27.2536 9.30288 26.5582C9.18809 25.9174 8.69983 25.4375 8.10242 25.3024Z" fill="#FFC739"/>
<path id="Union_6" fill-rule="evenodd" clip-rule="evenodd" d="M14.165 21.3999C13.8882 20.7336 13.1769 20.3253 12.4375 20.4578C11.7388 20.5829 11.2314 21.152 11.1536 21.8224C11.1013 21.8265 11.0486 21.8332 10.9958 21.8426C10.1418 21.9956 9.57349 22.812 9.72648 23.666C9.87408 24.4899 10.6391 25.0479 11.4597 24.9488C11.6513 25.7534 12.4404 26.2776 13.2647 26.1299C14.1107 25.9784 14.6763 25.1758 14.5381 24.3306C15.1363 24.0235 15.491 23.3522 15.3663 22.6559C15.2514 22.0148 14.7628 21.5347 14.165 21.3999Z" fill="#FFC739"/>
<path id="Union_7" fill-rule="evenodd" clip-rule="evenodd" d="M19.7945 24.5224C19.5176 23.8562 18.8065 23.448 18.067 23.5804C17.3684 23.7056 16.861 24.2746 16.7832 24.945C16.7301 24.9491 16.6767 24.9558 16.6232 24.9654C15.7692 25.1184 15.2009 25.9348 15.3539 26.7888C15.5017 27.6139 16.2687 28.1723 17.0907 28.0712C17.2821 28.8759 18.0713 29.4004 18.8957 29.2527C19.7422 29.1011 20.3079 28.2978 20.169 27.4521C20.7661 27.1446 21.12 26.474 20.9954 25.7783C20.8806 25.1374 20.3921 24.6574 19.7945 24.5224Z" fill="#FFC739"/>
<g id="Group 20036">
<g id="Group 20035">
<path id="Rectangle 3226" d="M2.90071 33.3129C2.81882 33.0966 2.95352 32.859 3.18123 32.8183L23.2262 29.2273C23.4539 29.1865 23.6627 29.3625 23.661 29.5938L23.5301 47.488C23.5288 47.6659 23.4009 47.8177 23.2257 47.8491L9.64629 50.2818C9.4711 50.3132 9.29842 50.2153 9.23541 50.0488L2.90071 33.3129Z" fill="white"/>
<path id="Intersect" fill-rule="evenodd" clip-rule="evenodd" d="M20.5613 47.8967C20.5684 48.1221 20.774 48.2887 20.996 48.2489L23.2258 47.8494C23.401 47.818 23.529 47.6663 23.5303 47.4883L23.6611 29.5942C23.6628 29.3628 23.454 29.1868 23.2263 29.2276L20.3065 29.7507C20.126 29.783 19.9965 29.9428 20.0022 30.1262L20.5613 47.8967ZM11.1057 31.7856C11.0629 31.5816 11.1971 31.3826 11.4023 31.3458L14.8224 30.7331C15.0276 30.6964 15.2225 30.8365 15.2532 31.0426L17.841 48.4497C17.8704 48.6474 17.7373 48.8327 17.5405 48.8679L15.1487 49.2964C14.9519 49.3317 14.7628 49.2041 14.7217 49.0085L11.1057 31.7856ZM12.1052 49.4116C12.1768 49.6254 12.0419 49.853 11.8199 49.8928L9.6464 50.2821C9.47121 50.3135 9.29853 50.2156 9.23552 50.0491L2.90082 33.3133C2.81893 33.0969 2.95363 32.8594 3.18134 32.8186L6.04483 32.3056C6.22535 32.2733 6.40229 32.3782 6.46052 32.5521L12.1052 49.4116Z" fill="#F95656"/>
</g>
<rect id="Rectangle 3231" x="1.88525" y="32.2996" width="22.5479" height="1.29373" rx="0.646866" transform="rotate(-10.1566 1.88525 32.2996)" fill="#F95656"/>
</g>
</g>
<ellipse id="Ellipse 1540" cx="24.4835" cy="38.8258" rx="2.71985" ry="2.71985" fill="#FFC226"/>
<path id="Rectangle 3238" d="M56.8193 54.9274C56.8193 51.0295 59.6092 47.6903 63.445 46.9971L90.2634 42.1504V69.7518H56.8193V54.9274Z" fill="#2178BA"/>
<path id="Vector_4" d="M72.041 49.4114C74.9951 50.0727 77.9261 48.214 78.5875 45.2598C79.2488 42.3057 77.3901 39.3747 74.4359 38.7133C71.4817 38.052 68.5508 39.9107 67.8894 42.8649C67.2281 45.8191 69.0868 48.75 72.041 49.4114Z" fill="#FFC226"/>
</g>
</svg>
