<svg width="85" height="80" viewBox="0 0 85 80" fill="none" xmlns="http://www.w3.org/2000/svg">
<g id="&#235;&#140;&#128;&#235;&#176;&#149;&#235;&#130;&#160;&#235;&#143;&#132;&#235;&#139;&#136;">
<g id="Donnie">
<circle id="Ellipse 979" cx="42.2147" cy="39.7523" r="29.5116" fill="#FFC226"/>
<circle id="Ellipse 980" cx="42.2153" cy="39.752" r="25.4873" fill="#FFD467"/>
<g id="Group 19108">
<g id="Group 18854">
<path id="Ellipse 1061" d="M20.3869 39.4073C20.3869 44.3497 15.9645 46.1895 10.5091 46.1895C5.05378 46.1895 0.631348 44.3497 0.631348 39.4073C0.631348 34.4649 5.98883 30.4583 10.5091 30.4583C14.9165 30.4583 20.3869 34.4649 20.3869 39.4073Z" fill="#62C87C"/>
<g id="Group 18847">
<path id="Vector 13" d="M7.14893 36.3108L8.84935 40.7318L10.5498 36.3108L12.2502 40.7318L13.9506 36.3108" stroke="#ECF9EF" stroke-width="1.16343" stroke-linecap="round" stroke-linejoin="round"/>
<path id="Vector 14" d="M6.48389 38.0115H7.669" stroke="#ECF9EF" stroke-width="1.16343" stroke-linecap="round" stroke-linejoin="round"/>
<path id="Vector 15" d="M13.4321 38.0115H14.7034" stroke="#ECF9EF" stroke-width="1.16343" stroke-linecap="round" stroke-linejoin="round"/>
</g>
<path id="Rectangle 2336" d="M7.15463 28.3524C7.08883 28.1989 7.20145 28.0281 7.3685 28.0281H13.6434C13.8104 28.0281 13.923 28.1989 13.8572 28.3524L12.9491 30.4713H8.06272L7.15463 28.3524Z" fill="#32B152"/>
<path id="Rectangle 2337" d="M8.92203 27.9497C8.89819 27.8078 9.0076 27.6785 9.1515 27.6785H11.859C12.003 27.6785 12.1124 27.8078 12.0885 27.9497L11.6454 30.587H9.36511L8.92203 27.9497Z" fill="#62C87C"/>
<rect id="Rectangle 2335" x="7.48096" y="30.1218" width="6.16621" height="0.930742" rx="0.465371" fill="#158131"/>
</g>
<g id="Group 18855">
<path id="Ellipse 1061_2" d="M84.1042 32.0301C84.1042 36.9725 79.6818 38.8124 74.2264 38.8124C68.7711 38.8124 64.3486 36.9725 64.3486 32.0301C64.3486 27.0877 69.7061 23.0811 74.2264 23.0811C78.6338 23.0811 84.1042 27.0877 84.1042 32.0301Z" fill="#62C87C"/>
<g id="Group 18847_2">
<path id="Vector 13_2" d="M70.8667 28.9341L72.5671 33.3551L74.2675 28.9341L75.968 33.3551L77.6684 28.9341" stroke="#ECF9EF" stroke-width="1.16343" stroke-linecap="round" stroke-linejoin="round"/>
<path id="Vector 14_2" d="M70.2017 30.6345H71.3868" stroke="#ECF9EF" stroke-width="1.16343" stroke-linecap="round" stroke-linejoin="round"/>
<path id="Vector 15_2" d="M77.1499 30.6345H78.4212" stroke="#ECF9EF" stroke-width="1.16343" stroke-linecap="round" stroke-linejoin="round"/>
</g>
<path id="Rectangle 2336_2" d="M70.8719 20.9752C70.8061 20.8217 70.9187 20.6509 71.0858 20.6509H77.3606C77.5277 20.6509 77.6403 20.8217 77.5745 20.9752L76.6664 23.0941H71.78L70.8719 20.9752Z" fill="#32B152"/>
<path id="Rectangle 2337_2" d="M72.6398 20.5725C72.616 20.4306 72.7254 20.3013 72.8693 20.3013H75.5768C75.7207 20.3013 75.8301 20.4306 75.8063 20.5725L75.3632 23.2098H73.0829L72.6398 20.5725Z" fill="#62C87C"/>
<rect id="Rectangle 2335_2" x="71.1982" y="22.7444" width="6.16621" height="0.930742" rx="0.465371" fill="#158131"/>
</g>
<path id="Vector" d="M10.6914 53.1666C13.6548 53.1666 16.0572 50.7642 16.0572 47.8008C16.0572 44.8374 13.6548 42.4351 10.6914 42.4351C7.728 42.4351 5.32568 44.8374 5.32568 47.8008C5.32568 50.7642 7.728 53.1666 10.6914 53.1666Z" fill="#FFC226"/>
<path id="Vector_2" d="M74.4097 46.4593C77.3731 46.4593 79.7754 44.057 79.7754 41.0935C79.7754 38.1301 77.3731 35.7278 74.4097 35.7278C71.4463 35.7278 69.0439 38.1301 69.0439 41.0935C69.0439 44.057 71.4463 46.4593 74.4097 46.4593Z" fill="#FFC226"/>
</g>
<g id="Group 19109">
<path id="Vector_3" d="M32.6902 65.9102C32.3615 65.9102 26.6336 65.9571 26.3184 70.8154V71.7468C26.3184 72.5979 27.0092 73.2881 27.861 73.2881H32.6902H37.5194C38.3712 73.2881 39.062 72.5979 39.062 71.7468V70.8154C38.7468 65.9571 32.9853 65.9102 32.6902 65.9102Z" fill="#FFC226"/>
<path id="Vector_4" d="M52.1404 65.9104C51.8117 65.9104 46.0838 65.9573 45.7686 70.8156V71.7471C45.7686 72.5981 46.4594 73.2883 47.3112 73.2883H52.1404H56.9696C57.8214 73.2883 58.5122 72.5981 58.5122 71.7471V70.8156C58.197 65.9573 52.4355 65.9104 52.1404 65.9104Z" fill="#FFC226"/>
</g>
</g>
<g id="Group 19123">
<g id="Group 19107">
<path id="Vector_5" d="M38.421 34.2644C39.2891 34.2644 39.9928 33.3909 39.9928 32.3134C39.9928 31.2358 39.2891 30.3623 38.421 30.3623C37.5529 30.3623 36.8491 31.2358 36.8491 32.3134C36.8491 33.3909 37.5529 34.2644 38.421 34.2644Z" fill="#4F422C"/>
<path id="Vector_6" d="M46.0089 34.2644C46.877 34.2644 47.5807 33.3909 47.5807 32.3134C47.5807 31.2358 46.877 30.3623 46.0089 30.3623C45.1407 30.3623 44.437 31.2358 44.437 32.3134C44.437 33.3909 45.1407 34.2644 46.0089 34.2644Z" fill="#4F422C"/>
</g>
<circle id="Ellipse 1108" cx="42.2153" cy="37.0698" r="2.01216" fill="#4F422C"/>
</g>
</g>
</svg>
